<?xml version="1.0"?>
<svg xmlns="http://www.w3.org/2000/svg" height="512px" viewBox="0 -44 488.91948 488" width="512px" class=""><g><path d="m488.917969 306.210938c0 4.628906-.535157 9.246093-1.597657 13.75-1.015624 4.316406-2.519531 8.503906-4.480468 12.480468 0 .011719-.011719.019532-.019532.03125-4.75 8.917969-12.628906 17.320313-23.109374 24.96875-35.320313 25.800782-100.191407 43.101563-174.363282 43.101563-65.25 0-123.296875-13.390625-160.359375-34.171875-11.808593-6.621094-21.480469-13.988282-28.589843-21.910156l-.007813-.007813c-19.609375-23.800781-23.722656-56.777344-10.5625-84.664063 13.15625-27.886718 41.226563-45.679687 72.0625-45.679687 2.390625 0 4.753906.109375 7.097656.320313.691407-1.628907 1.414063-3.246094 2.171875-4.847657 23.878906-50.730469 77.964844-80.050781 133.507813-72.375 55.542969 7.679688 99.648437 50.566407 108.871093 105.875.359376 2.210938.671876 4.4375.929688 6.679688 3.449219-1.164063 7.003906-1.996094 10.609375-2.492188 2.757813-.394531 5.539063-.589843 8.320313-.589843 32.875.003906 59.523437 26.65625 59.519531 59.53125zm0 0" fill="#d4e1f4" data-original="#D4E1F4" class="" style="fill:#C4D4E0" data-old_color="#c4d4e0"/><path d="m210.441406 158.230469.167969.25c-18.746094 12.894531-33.738281 30.527343-43.449219 51.101562l-.21875-.109375c-24.972656 6.691406-51.394531-3.625-65.226562-25.46875-13.828125-21.839844-11.851563-50.136718 4.878906-69.847656 16.734375-19.707031 44.332031-26.25 68.132812-16.148438 23.796876 10.097657 38.265626 34.496094 35.714844 60.222657zm0 0" fill="#fedb41" data-original="#FEDB41" class="" style="fill:#FEDB41"/><g fill="#f4b844"><path d="m160.941406 69.023438c-2.824218 0-5.519531-1.195313-7.417968-3.289063-1.898438-2.089844-2.820313-4.890625-2.546876-7.699219l4.8125-48.421875c.304688-3.59375 2.523438-6.746093 5.800782-8.246093 3.28125-1.5 7.113281-1.121094 10.03125.996093 2.921875 2.117188 4.476562 5.644531 4.066406 9.226563l-4.808594 48.421875c-.507812 5.109375-4.800781 9.003906-9.9375 9.011719zm0 0" data-original="#000000" class="active-path" style="fill:#FEDB41" data-old_color="##C4D4E"/><path d="m58.289062 153.113281c-.332031 0-.664062-.019531-1-.050781l-48.417968-4.808594c-5.433594-.621094-9.363282-5.484375-8.8203128-10.925781.5390628-5.441406 5.3476568-9.4375 10.7968748-8.976563l48.417969 4.8125c5.308594.519532 9.269531 5.113282 9.011719 10.4375-.261719 5.328126-4.65625 9.511719-9.988282 9.511719zm0 0" data-original="#000000" class="active-path" style="fill:#FEDB41" data-old_color="##C4D4E"/><path d="m42.164062 252.09375c-4.226562 0-7.996093-2.652344-9.421874-6.632812-1.421876-3.980469-.191407-8.425782 3.078124-11.105469l36.109376-29.589844c4.273437-3.5 10.574218-2.875 14.074218 1.398437 3.5 4.269532 2.875 10.570313-1.394531 14.070313l-36.113281 29.59375c-1.78125 1.464844-4.019532 2.265625-6.332032 2.265625zm0 0" data-original="#000000" class="active-path" style="fill:#FEDB41" data-old_color="##C4D4E"/><path d="m225.035156 102.28125c-4.226562.003906-7.996094-2.652344-9.421875-6.632812-1.421875-3.980469-.191406-8.421876 3.078125-11.101563l36.109375-29.589844c4.273438-3.5 10.574219-2.875 14.074219 1.394531 3.5 4.273438 2.875 10.574219-1.398438 14.074219l-36.109374 29.589844c-1.785157 1.46875-4.023438 2.265625-6.332032 2.265625zm0 0" data-original="#000000" class="active-path" style="fill:#FEDB41" data-old_color="##C4D4E"/><path d="m91.546875 89.023438c-3 .003906-5.84375-1.34375-7.742187-3.664063l-29.589844-36.121094c-3.5-4.273437-2.875-10.574219 1.398437-14.074219 4.273438-3.5 10.578125-2.875 14.078125 1.398438l29.585938 36.121094c2.449218 2.988281 2.957031 7.121094 1.304687 10.613281-1.652343 3.496094-5.167969 5.722656-9.03125 5.726563zm0 0" data-original="#000000" class="active-path" style="fill:#FEDB41" data-old_color="##C4D4E"/></g></g> </svg>
